{
    "asset" : {
        "generator" : "Khronos glTF Blender I/O v3.2.43",
        "version" : "2.0"
    },
    "scene" : 0,
    "scenes" : [
        {
            "name" : "Scene",
            "nodes" : [
                2
            ]
        }
    ],
    "nodes" : [
        {
            "mesh" : 0,
            "name" : "Siren",
            "translation" : [
                3.4979465007781982,
                1.2647335529327393,
                0
            ]
        },
        {
            "mesh" : 1,
            "name" : "Wheels",
            "translation" : [
                0.10000000894069672,
                -2.3980000019073486,
                0
            ]
        },
        {
            "children" : [
                0,
                1
            ],
            "mesh" : 2,
            "name" : "Firetruck"
        }
    ],
    "materials" : [
        {
            "doubleSided" : true,
            "name" : "Material",
            "pbrMetallicRoughness" : {}
        }
    ],
    "meshes" : [
        {
            "name" : "Cube.002",
            "primitives" : [
                {
                    "attributes" : {
                        "POSITION" : 0,
                        "NORMAL" : 1,
                        "TEXCOORD_0" : 2
                    },
                    "indices" : 3,
                    "material" : 0
                }
            ]
        },
        {
            "name" : "Cube.001",
            "primitives" : [
                {
                    "attributes" : {
                        "POSITION" : 4,
                        "NORMAL" : 5,
                        "TEXCOORD_0" : 6
                    },
                    "indices" : 7,
                    "material" : 0
                }
            ]
        },
        {
            "name" : "Cube",
            "primitives" : [
                {
                    "attributes" : {
                        "POSITION" : 8,
                        "NORMAL" : 9,
                        "TEXCOORD_0" : 10
                    },
                    "indices" : 11,
                    "material" : 0
                }
            ]
        }
    ],
    "accessors" : [
        {
            "bufferView" : 0,
            "componentType" : 5126,
            "count" : 101,
            "max" : [
                0.2056381106376648,
                0.0653311237692833,
                1.133971929550171
            ],
            "min" : [
                -0.19741281867027283,
                -0.06292922049760818,
                -1.133971929550171
            ],
            "type" : "VEC3"
        },
        {
            "bufferView" : 1,
            "componentType" : 5126,
            "count" : 101,
            "type" : "VEC3"
        },
        {
            "bufferView" : 2,
            "componentType" : 5126,
            "count" : 101,
            "type" : "VEC2"
        },
        {
            "bufferView" : 3,
            "componentType" : 5123,
            "count" : 282,
            "type" : "SCALAR"
        },
        {
            "bufferView" : 4,
            "componentType" : 5126,
            "count" : 259,
            "max" : [
                3.690613269805908,
                1.4595352411270142,
                1.4654074907302856
            ],
            "min" : [
                -3.723428249359131,
                0.07092837244272232,
                -1.4654074907302856
            ],
            "type" : "VEC3"
        },
        {
            "bufferView" : 5,
            "componentType" : 5126,
            "count" : 259,
            "type" : "VEC3"
        },
        {
            "bufferView" : 6,
            "componentType" : 5126,
            "count" : 259,
            "type" : "VEC2"
        },
        {
            "bufferView" : 7,
            "componentType" : 5123,
            "count" : 720,
            "type" : "SCALAR"
        },
        {
            "bufferView" : 8,
            "componentType" : 5126,
            "count" : 2779,
            "max" : [
                5.076414585113525,
                1.2414366006851196,
                1.8284085988998413
            ],
            "min" : [
                -4.74930477142334,
                -1.4794421195983887,
                -1.8284085988998413
            ],
            "type" : "VEC3"
        },
        {
            "bufferView" : 9,
            "componentType" : 5126,
            "count" : 2779,
            "type" : "VEC3"
        },
        {
            "bufferView" : 10,
            "componentType" : 5126,
            "count" : 2779,
            "type" : "VEC2"
        },
        {
            "bufferView" : 11,
            "componentType" : 5123,
            "count" : 10218,
            "type" : "SCALAR"
        }
    ],
    "bufferViews" : [
        {
            "buffer" : 0,
            "byteLength" : 1212,
            "byteOffset" : 0
        },
        {
            "buffer" : 0,
            "byteLength" : 1212,
            "byteOffset" : 1212
        },
        {
            "buffer" : 0,
            "byteLength" : 808,
            "byteOffset" : 2424
        },
        {
            "buffer" : 0,
            "byteLength" : 564,
            "byteOffset" : 3232
        },
        {
            "buffer" : 0,
            "byteLength" : 3108,
            "byteOffset" : 3796
        },
        {
            "buffer" : 0,
            "byteLength" : 3108,
            "byteOffset" : 6904
        },
        {
            "buffer" : 0,
            "byteLength" : 2072,
            "byteOffset" : 10012
        },
        {
            "buffer" : 0,
            "byteLength" : 1440,
            "byteOffset" : 12084
        },
        {
            "buffer" : 0,
            "byteLength" : 33348,
            "byteOffset" : 13524
        },
        {
            "buffer" : 0,
            "byteLength" : 33348,
            "byteOffset" : 46872
        },
        {
            "buffer" : 0,
            "byteLength" : 22232,
            "byteOffset" : 80220
        },
        {
            "buffer" : 0,
            "byteLength" : 20436,
            "byteOffset" : 102452
        }
    ],
    "buffers" : [
        {
            "byteLength" : 122888,
            "uri" : "data:application/octet-stream;base64,"
        }
    ]
}
